<svg xmlns="http://www.w3.org/2000/svg" width="1280" height="320" viewBox="0 0 1280 320" role="img" aria-label="überepo — switch tasks, not branches">
  <style>
    .bg { fill:#FBFBFD; } .ink { fill:#16161D; } .muted { fill:#6B6B76; }
    .stroke-ink { stroke:#16161D; } .rail { stroke:#16161D; opacity:.045; }
    .accent { fill:#FF2E4D; } .stroke-accent { stroke:#FF2E4D; }
    .border { stroke:#E5E5EA; }
    @media (prefers-color-scheme: dark) {
      .bg { fill:#0D0D12; } .ink { fill:#F5F5F7; } .muted { fill:#8A8A94; }
      .stroke-ink { stroke:#F5F5F7; } .rail { stroke:#FFFFFF; opacity:.05; }
      .border { stroke:#1E1E26; }
    }
  </style>
  <!-- card -->
  <rect class="bg" x="0" y="0" width="1280" height="320" rx="20"/>
  <rect class="border" x="0.5" y="0.5" width="1279" height="319" rx="19.5" fill="none" stroke-width="1"/>
  <!-- faint full-width horizontal rails (background texture) -->
  <g class="rail" fill="none" stroke-width="2" stroke-linecap="round">
    <line x1="96" y1="96" x2="1184" y2="96"/>
    <line x1="96" y1="126" x2="1184" y2="126"/>
    <line x1="96" y1="155" x2="1184" y2="155"/>
    <line x1="96" y1="185" x2="1184" y2="185"/>
    <line x1="96" y1="214" x2="1184" y2="214"/>
    <line x1="96" y1="244" x2="1184" y2="244"/>
  </g>
  <!-- ===== centered lockup: [fork-as-ü] + "berepo" + tagline (Rajdhani Bold wordmark) ===== -->
  <g transform="translate(440.68 9.19)">
    <!-- fork-as-ü glyph: stem-weight stroke matched to Rajdhani Bold stem (14.63) -->
    <g class="ink" stroke="none">
      <path d="M 10.555 80.264 A 2.419 2.419 0 0 1 12.974 77.845 L 22.766 77.845 A 2.419 2.419 0 0 1 25.185 80.264 L 25.185 170.375 L 44.085 170.375 L 44.085 80.264 A 2.419 2.419 0 0 1 46.504 77.845 L 56.296 77.845 A 2.419 2.419 0 0 1 58.715 80.264 L 58.715 175.49 A 9.515 9.515 0 0 1 49.2 185.005 L 20.07 185.005 A 9.515 9.515 0 0 1 10.555 175.49 L 10.555 80.264 Z"/>
      <path d="M 27.32 170.375 L 41.95 170.375 L 41.95 197.896 A 2.419 2.419 0 0 1 39.531 200.315 L 29.739 200.315 A 2.419 2.419 0 0 1 27.32 197.896 L 27.32 170.375 Z"/>
    </g>
    <!-- umlaut marks: rounded-corner squares (accent red, constant both themes), weight-matched to the dots -->
    <g class="accent">
      <path d="M 14.01 56.27 L 21.74 56.27 C 23.41 56.27 24.77 57.63 24.77 59.3 L 24.77 67.03 C 24.77 68.7 23.41 70.06 21.74 70.06 L 14.01 70.06 C 12.34 70.06 10.98 68.7 10.98 67.03 L 10.98 59.3 C 10.98 57.63 12.34 56.27 14.01 56.27 Z"/>
      <path d="M 47.53 56.27 L 55.26 56.27 C 56.93 56.27 58.29 57.63 58.29 59.3 L 58.29 67.03 C 58.29 68.7 56.93 70.06 55.26 70.06 L 47.53 70.06 C 45.86 70.06 44.5 68.7 44.5 67.03 L 44.5 59.3 C 44.5 57.63 45.86 56.27 47.53 56.27 Z"/>
    </g>
    <!-- wordmark "berepo" (Rajdhani Bold, outlined) -->
    <path class="ink" d="M82.494 172.326L94.246 172.326Q97.933 172.326 99.489 170.771Q101.044 169.215 101.044 165.529L101.044 145.481Q101.044 141.794 99.489 140.239Q97.933 138.683 94.246 138.683L89.177 138.683Q81.227 138.683 81.227 147.440L81.227 171.059Q81.227 172.326 82.494 172.326M66.595 182.580L66.595 106.423Q66.595 104.003 69.014 104.003L78.808 104.003Q81.227 104.003 81.227 106.423L81.227 132.346L81.688 132.346Q82.955 129.236 86.181 127.623Q89.407 126.010 92.979 126.010L96.666 126.010Q105.768 126.010 110.722 130.849Q115.677 135.688 115.677 144.790L115.677 166.220Q115.677 175.322 110.722 180.161Q105.768 185 96.666 185L69.014 185Q66.595 185 66.595 182.580M170.519 185L145.057 185Q135.955 185 131 180.161Q126.046 175.322 126.046 166.220L126.046 145.020Q126.046 135.918 131 131.079Q135.955 126.240 145.057 126.240L154.159 126.240Q163.261 126.240 168.215 131.079Q173.169 135.918 173.169 145.020L173.169 159.653Q173.169 162.072 170.750 162.072L141.831 162.072Q140.448 162.072 140.448 163.339L140.448 165.874Q140.448 169.446 142.003 171.001Q143.559 172.557 147.246 172.557L170.519 172.557Q172.939 172.557 172.939 175.091L172.939 182.696Q172.939 183.963 172.420 184.482Q171.902 185 170.519 185M141.831 152.279L157.500 152.279Q158.767 152.279 158.767 151.011L158.767 145.481Q158.767 141.794 157.269 140.296Q155.772 138.799 152.085 138.799L147.246 138.799Q143.559 138.799 142.061 140.296Q140.563 141.794 140.563 145.481L140.563 151.011Q140.563 152.279 141.831 152.279M196.328 185L186.534 185Q184.115 185 184.115 182.580L184.115 128.660Q184.115 126.240 186.534 126.240L196.328 126.240Q198.747 126.240 198.747 128.660L198.747 132.577L199.208 132.577Q200.475 129.466 203.701 127.853Q206.927 126.240 210.499 126.240L214.647 126.240Q216.951 126.240 216.951 128.660L216.951 136.609Q216.951 137.992 216.433 138.510Q215.914 139.029 214.647 138.914L206.697 138.914Q198.747 138.914 198.747 147.901L198.747 182.580Q198.747 185 196.328 185M267.646 185L242.183 185Q233.081 185 228.127 180.161Q223.173 175.322 223.173 166.220L223.173 145.020Q223.173 135.918 228.127 131.079Q233.081 126.240 242.183 126.240L251.285 126.240Q260.387 126.240 265.342 131.079Q270.296 135.918 270.296 145.020L270.296 159.653Q270.296 162.072 267.876 162.072L238.957 162.072Q237.575 162.072 237.575 163.339L237.575 165.874Q237.575 169.446 239.130 171.001Q240.686 172.557 244.372 172.557L267.646 172.557Q270.066 172.557 270.066 175.091L270.066 182.696Q270.066 183.963 269.547 184.482Q269.029 185 267.646 185M238.957 152.279L254.627 152.279Q255.894 152.279 255.894 151.011L255.894 145.481Q255.894 141.794 254.396 140.296Q252.898 138.799 249.212 138.799L244.372 138.799Q240.686 138.799 239.188 140.296Q237.690 141.794 237.690 145.481L237.690 151.011Q237.690 152.279 238.957 152.279M293.454 200.669L283.661 200.669Q281.241 200.669 281.241 198.365L281.241 128.660Q281.241 126.240 283.661 126.240L293.454 126.240Q295.874 126.240 295.874 128.660L295.874 132.462L296.335 132.462Q297.602 129.351 300.828 127.795Q304.054 126.240 307.626 126.240L312.350 126.240Q321.221 126.240 325.772 131.079Q330.323 135.918 330.323 145.020L330.323 166.220Q330.323 175.322 325.772 180.161Q321.221 185 312.350 185L307.626 185Q304.054 185 300.828 183.445Q297.602 181.889 296.335 178.778L295.874 178.778L295.874 198.365Q295.874 200.669 293.454 200.669M303.824 172.326L308.893 172.326Q312.580 172.326 314.136 170.771Q315.691 169.215 315.691 165.529L315.691 145.711Q315.691 142.025 314.136 140.469Q312.580 138.914 308.893 138.914L303.824 138.914Q295.874 138.914 295.874 147.670L295.874 163.570Q295.874 172.326 303.824 172.326M369.958 185L359.703 185Q350.601 185 345.647 180.161Q340.693 175.322 340.693 166.220L340.693 145.020Q340.693 135.918 345.647 131.079Q350.601 126.240 359.703 126.240L369.958 126.240Q378.944 126.240 383.956 131.137Q388.968 136.033 388.968 145.020L388.968 166.220Q388.968 175.207 383.956 180.103Q378.944 185 369.958 185M361.892 172.441L367.768 172.441Q371.455 172.441 373.011 170.944Q374.566 169.446 374.566 165.759L374.566 145.481Q374.566 141.794 373.011 140.296Q371.455 138.799 367.768 138.799L361.892 138.799Q358.206 138.799 356.708 140.296Q355.210 141.794 355.210 145.481L355.210 165.759Q355.210 169.446 356.708 170.944Q358.206 172.441 361.892 172.441"/>
    <!-- tagline "switch tasks, not branches" (JetBrains Mono, outlined, re-centered) -->
    <path class="muted" d="M-38.186 241.251L-39.505 241.251Q-41.263 241.251-42.566 240.702Q-43.869 240.152-44.638 239.148Q-45.407 238.143-45.564 236.761L-42.739 236.761Q-42.550 237.672-41.718 238.206Q-40.886 238.739-39.505 238.739L-38.186 238.739Q-36.522 238.739-35.706 238.064Q-34.890 237.389-34.890 236.259Q-34.890 235.160-35.627 234.517Q-36.365 233.873-37.809 233.653L-40.133 233.276Q-42.676 232.837-43.916 231.691Q-45.156 230.545-45.156 228.347Q-45.156 226.024-43.681 224.752Q-42.205 223.481-39.254 223.481L-38.061 223.481Q-35.580 223.481-34.073 224.642Q-32.566 225.804-32.252 227.782L-35.078 227.782Q-35.266 226.966-36.020 226.479Q-36.773 225.993-38.061 225.993L-39.254 225.993Q-40.855 225.993-41.593 226.589Q-42.330 227.186-42.330 228.379Q-42.330 229.446-41.703 229.948Q-41.075 230.451-39.725 230.671L-37.401 231.047Q-34.607 231.487-33.335 232.680Q-32.064 233.873-32.064 236.134Q-32.064 238.520-33.587 239.885Q-35.109 241.251-38.186 241.251M-22.582 241L-25.690 241L-28.453 223.732L-25.942 223.732L-24.215 235.977Q-24.121 236.667-24.011 237.468Q-23.901 238.269-23.838 238.802Q-23.775 238.269-23.634 237.468Q-23.493 236.667-23.398 235.977L-21.483 223.732L-18.783 223.732L-16.868 235.977Q-16.774 236.667-16.633 237.468Q-16.491 238.269-16.428 238.802Q-16.366 238.269-16.224 237.468Q-16.083 236.667-15.989 235.977L-14.199 223.732L-11.813 223.732L-14.702 241L-17.810 241L-19.662 229.069Q-19.788 228.190-19.945 227.311Q-20.102 226.432-20.165 225.930Q-20.227 226.432-20.353 227.311Q-20.479 228.190-20.636 229.069L-22.582 241M6.711 241L-8.046 241L-8.046 238.425L-1.923 238.425L-1.923 226.306L-7.261 226.306L-7.261 223.732L0.902 223.732L0.902 238.425L6.711 238.425L6.711 241M-0.824 220.624Q-1.861 220.624-2.457 220.090Q-3.054 219.556-3.054 218.646Q-3.054 217.704-2.457 217.154Q-1.861 216.605-0.824 216.605Q0.212 216.605 0.808 217.154Q1.405 217.704 1.405 218.646Q1.405 219.556 0.808 220.090Q0.212 220.624-0.824 220.624M24.136 241L19.426 241Q17.197 241 15.957 239.807Q14.717 238.614 14.717 236.448L14.717 226.306L9.850 226.306L9.850 223.732L14.717 223.732L14.717 218.866L17.542 218.866L17.542 223.732L24.450 223.732L24.450 226.306L17.542 226.306L17.542 236.448Q17.542 238.425 19.426 238.425L24.136 238.425L24.136 241M36.506 241.314Q34.434 241.314 32.880 240.529Q31.325 239.744 30.478 238.253Q29.630 236.761 29.630 234.721L29.630 230.011Q29.630 227.939 30.478 226.463Q31.325 224.988 32.880 224.203Q34.434 223.418 36.506 223.418Q39.489 223.418 41.310 225.019Q43.130 226.620 43.225 229.383L40.399 229.383Q40.305 227.719 39.284 226.825Q38.264 225.930 36.506 225.930Q34.653 225.930 33.555 226.982Q32.456 228.033 32.456 229.980L32.456 234.721Q32.456 236.667 33.555 237.735Q34.653 238.802 36.506 238.802Q38.264 238.802 39.284 237.892Q40.305 236.981 40.399 235.349L43.225 235.349Q43.130 238.112 41.310 239.713Q39.489 241.314 36.506 241.314M51.513 241L48.688 241L48.688 218.081L51.513 218.081L51.513 223.732L51.513 227.029L52.110 227.029L51.513 227.688Q51.513 225.647 52.738 224.533Q53.962 223.418 56.129 223.418Q58.735 223.418 60.273 225.019Q61.811 226.620 61.811 229.383L61.811 241L58.986 241L58.986 229.697Q58.986 227.845 57.997 226.825Q57.008 225.804 55.312 225.804Q53.554 225.804 52.534 226.903Q51.513 228.002 51.513 230.011L51.513 241M99.487 241L94.778 241Q92.548 241 91.308 239.807Q90.068 238.614 90.068 236.448L90.068 226.306L85.202 226.306L85.202 223.732L90.068 223.732L90.068 218.866L92.894 218.866L92.894 223.732L99.801 223.732L99.801 226.306L92.894 226.306L92.894 236.448Q92.894 238.425 94.778 238.425L99.487 238.425L99.487 241M110.225 241.314Q107.493 241.314 105.923 239.917Q104.353 238.520 104.353 236.134Q104.353 233.716 105.923 232.335Q107.493 230.953 110.162 230.953L115.499 230.953L115.499 229.226Q115.499 227.625 114.542 226.762Q113.584 225.898 111.826 225.898Q110.287 225.898 109.251 226.542Q108.215 227.186 108.058 228.284L105.233 228.284Q105.515 226.055 107.336 224.737Q109.157 223.418 111.889 223.418Q114.871 223.418 116.598 224.956Q118.325 226.495 118.325 229.132L118.325 241L115.562 241L115.562 237.703L115.091 237.703L115.562 237.232Q115.562 239.116 114.102 240.215Q112.642 241.314 110.225 241.314M110.915 239.085Q112.925 239.085 114.212 238.080Q115.499 237.075 115.499 235.506L115.499 233.057L110.225 233.057Q108.812 233.057 107.995 233.842Q107.179 234.627 107.179 235.977Q107.179 237.421 108.168 238.253Q109.157 239.085 110.915 239.085M131.354 241.251L130.036 241.251Q128.278 241.251 126.975 240.702Q125.672 240.152 124.902 239.148Q124.133 238.143 123.976 236.761L126.802 236.761Q126.990 237.672 127.822 238.206Q128.654 238.739 130.036 238.739L131.354 238.739Q133.018 238.739 133.835 238.064Q134.651 237.389 134.651 236.259Q134.651 235.160 133.913 234.517Q133.175 233.873 131.731 233.653L129.408 233.276Q126.865 232.837 125.625 231.691Q124.384 230.545 124.384 228.347Q124.384 226.024 125.860 224.752Q127.336 223.481 130.287 223.481L131.480 223.481Q133.960 223.481 135.467 224.642Q136.974 225.804 137.288 227.782L134.463 227.782Q134.274 226.966 133.521 226.479Q132.767 225.993 131.480 225.993L130.287 225.993Q128.686 225.993 127.948 226.589Q127.210 227.186 127.210 228.379Q127.210 229.446 127.838 229.948Q128.466 230.451 129.816 230.671L132.139 231.047Q134.934 231.487 136.205 232.680Q137.477 233.873 137.477 236.134Q137.477 238.520 135.954 239.885Q134.431 241.251 131.354 241.251M145.797 241L142.971 241L142.971 218.081L145.797 218.081L145.797 230.859L149.125 230.859L154.148 223.732L157.382 223.732L151.574 231.958L157.476 241L154.180 241L149.156 233.308L145.797 233.308L145.797 241M169.030 241.251L167.711 241.251Q165.953 241.251 164.650 240.702Q163.347 240.152 162.578 239.148Q161.809 238.143 161.652 236.761L164.478 236.761Q164.666 237.672 165.498 238.206Q166.330 238.739 167.711 238.739L169.030 238.739Q170.694 238.739 171.510 238.064Q172.327 237.389 172.327 236.259Q172.327 235.160 171.589 234.517Q170.851 233.873 169.407 233.653L167.083 233.276Q164.540 232.837 163.300 231.691Q162.060 230.545 162.060 228.347Q162.060 226.024 163.536 224.752Q165.011 223.481 167.963 223.481L169.156 223.481Q171.636 223.481 173.143 224.642Q174.650 225.804 174.964 227.782L172.138 227.782Q171.950 226.966 171.196 226.479Q170.443 225.993 169.156 225.993L167.963 225.993Q166.361 225.993 165.624 226.589Q164.886 227.186 164.886 228.379Q164.886 229.446 165.514 229.948Q166.142 230.451 167.492 230.671L169.815 231.047Q172.609 231.487 173.881 232.680Q175.152 233.873 175.152 236.134Q175.152 238.520 173.630 239.885Q172.107 241.251 169.030 241.251M185.356 246.023L182.844 246.023L185.356 236.259L189.438 236.259L185.356 246.023M221.054 241L218.228 241L218.228 223.732L221.054 223.732L221.054 227.029L221.650 227.029L221.054 227.688Q221.054 225.647 222.278 224.533Q223.503 223.418 225.669 223.418Q228.275 223.418 229.813 225.019Q231.352 226.620 231.352 229.383L231.352 241L228.526 241L228.526 229.697Q228.526 227.845 227.537 226.856Q226.548 225.867 224.853 225.867Q223.095 225.867 222.074 226.934Q221.054 228.002 221.054 230.011L221.054 241M243.596 241.251Q241.524 241.251 240.017 240.466Q238.510 239.681 237.678 238.190Q236.846 236.699 236.846 234.658L236.846 230.074Q236.846 228.002 237.678 226.526Q238.510 225.051 240.017 224.266Q241.524 223.481 243.596 223.481Q245.669 223.481 247.176 224.266Q248.683 225.051 249.515 226.526Q250.347 228.002 250.347 230.043L250.347 234.658Q250.347 236.699 249.515 238.190Q248.683 239.681 247.176 240.466Q245.669 241.251 243.596 241.251M243.596 238.739Q245.449 238.739 246.485 237.703Q247.521 236.667 247.521 234.658L247.521 230.074Q247.521 228.065 246.485 227.029Q245.449 225.993 243.596 225.993Q241.775 225.993 240.724 227.029Q239.672 228.065 239.672 230.074L239.672 234.658Q239.672 236.667 240.724 237.703Q241.775 238.739 243.596 238.739M269.028 241L264.318 241Q262.089 241 260.849 239.807Q259.609 238.614 259.609 236.448L259.609 226.306L254.742 226.306L254.742 223.732L259.609 223.732L259.609 218.866L262.434 218.866L262.434 223.732L269.342 223.732L269.342 226.306L262.434 226.306L262.434 236.448Q262.434 238.425 264.318 238.425L269.028 238.425L269.028 241M301.115 241.314Q298.980 241.314 297.692 240.168Q296.405 239.022 296.405 237.044L296.970 237.703L296.405 237.703L296.405 241L293.580 241L293.580 218.081L296.405 218.081L296.405 223.104L296.342 227.029L296.970 227.029L296.405 227.688Q296.405 225.741 297.708 224.580Q299.011 223.418 301.115 223.418Q303.721 223.418 305.290 225.145Q306.860 226.872 306.860 229.854L306.860 234.909Q306.860 237.860 305.290 239.587Q303.721 241.314 301.115 241.314M300.173 238.865Q301.962 238.865 302.998 237.798Q304.035 236.730 304.035 234.721L304.035 230.011Q304.035 228.002 302.998 226.934Q301.962 225.867 300.173 225.867Q298.446 225.867 297.426 226.966Q296.405 228.065 296.405 230.011L296.405 234.721Q296.405 236.667 297.426 237.766Q298.446 238.865 300.173 238.865M315.840 241L313.014 241L313.014 223.732L315.777 223.732L315.777 227.029L316.436 227.029L315.526 229.069Q315.526 226.275 316.734 224.847Q317.943 223.418 320.329 223.418Q323.061 223.418 324.678 225.129Q326.295 226.840 326.295 229.760L326.295 230.796L323.469 230.796L323.469 230.011Q323.469 227.970 322.480 226.887Q321.491 225.804 319.670 225.804Q317.880 225.804 316.860 226.903Q315.840 228.002 315.840 230.011L315.840 241M336.279 241.314Q333.547 241.314 331.977 239.917Q330.408 238.520 330.408 236.134Q330.408 233.716 331.977 232.335Q333.547 230.953 336.216 230.953L341.553 230.953L341.553 229.226Q341.553 227.625 340.596 226.762Q339.638 225.898 337.880 225.898Q336.341 225.898 335.305 226.542Q334.269 227.186 334.112 228.284L331.287 228.284Q331.569 226.055 333.390 224.737Q335.211 223.418 337.943 223.418Q340.925 223.418 342.652 224.956Q344.379 226.495 344.379 229.132L344.379 241L341.616 241L341.616 237.703L341.145 237.703L341.616 237.232Q341.616 239.116 340.156 240.215Q338.696 241.314 336.279 241.314M336.969 239.085Q338.979 239.085 340.266 238.080Q341.553 237.075 341.553 235.506L341.553 233.057L336.279 233.057Q334.866 233.057 334.050 233.842Q333.233 234.627 333.233 235.977Q333.233 237.421 334.222 238.253Q335.211 239.085 336.969 239.085M352.919 241L350.093 241L350.093 223.732L352.919 223.732L352.919 227.029L353.515 227.029L352.919 227.688Q352.919 225.647 354.143 224.533Q355.368 223.418 357.534 223.418Q360.140 223.418 361.678 225.019Q363.217 226.620 363.217 229.383L363.217 241L360.391 241L360.391 229.697Q360.391 227.845 359.402 226.856Q358.413 225.867 356.718 225.867Q354.960 225.867 353.939 226.934Q352.919 228.002 352.919 230.011L352.919 241M375.587 241.314Q373.515 241.314 371.961 240.529Q370.407 239.744 369.559 238.253Q368.711 236.761 368.711 234.721L368.711 230.011Q368.711 227.939 369.559 226.463Q370.407 224.988 371.961 224.203Q373.515 223.418 375.587 223.418Q378.570 223.418 380.391 225.019Q382.212 226.620 382.306 229.383L379.480 229.383Q379.386 227.719 378.366 226.825Q377.345 225.930 375.587 225.930Q373.735 225.930 372.636 226.982Q371.537 228.033 371.537 229.980L371.537 234.721Q371.537 236.667 372.636 237.735Q373.735 238.802 375.587 238.802Q377.345 238.802 378.366 237.892Q379.386 236.981 379.480 235.349L382.306 235.349Q382.212 238.112 380.391 239.713Q378.570 241.314 375.587 241.314M390.594 241L387.769 241L387.769 218.081L390.594 218.081L390.594 223.732L390.594 227.029L391.191 227.029L390.594 227.688Q390.594 225.647 391.819 224.533Q393.043 223.418 395.210 223.418Q397.816 223.418 399.354 225.019Q400.892 226.620 400.892 229.383L400.892 241L398.067 241L398.067 229.697Q398.067 227.845 397.078 226.825Q396.089 225.804 394.393 225.804Q392.635 225.804 391.615 226.903Q390.594 228.002 390.594 230.011L390.594 241M413.137 241.314Q411.096 241.314 409.574 240.498Q408.051 239.681 407.219 238.190Q406.387 236.699 406.387 234.721L406.387 230.011Q406.387 228.002 407.219 226.526Q408.051 225.051 409.574 224.234Q411.096 223.418 413.137 223.418Q415.178 223.418 416.701 224.234Q418.223 225.051 419.055 226.526Q419.887 228.002 419.887 230.011L419.887 233.057L409.150 233.057L409.150 234.721Q409.150 236.761 410.186 237.845Q411.222 238.928 413.137 238.928Q414.770 238.928 415.774 238.347Q416.779 237.766 416.999 236.605L419.824 236.605Q419.542 238.771 417.705 240.042Q415.869 241.314 413.137 241.314M417.344 230.922L417.124 231.173L417.124 230.011Q417.124 227.970 416.104 226.872Q415.084 225.773 413.137 225.773Q411.222 225.773 410.186 226.872Q409.150 227.970 409.150 230.011L409.150 230.922L417.344 230.922M432.760 241.251L431.441 241.251Q429.683 241.251 428.380 240.702Q427.077 240.152 426.308 239.148Q425.539 238.143 425.382 236.761L428.207 236.761Q428.396 237.672 429.228 238.206Q430.060 238.739 431.441 238.739L432.760 238.739Q434.424 238.739 435.240 238.064Q436.056 237.389 436.056 236.259Q436.056 235.160 435.319 234.517Q434.581 233.873 433.137 233.653L430.813 233.276Q428.270 232.837 427.030 231.691Q425.790 230.545 425.790 228.347Q425.790 226.024 427.265 224.752Q428.741 223.481 431.692 223.481L432.885 223.481Q435.366 223.481 436.873 224.642Q438.380 225.804 438.694 227.782L435.868 227.782Q435.680 226.966 434.926 226.479Q434.173 225.993 432.885 225.993L431.692 225.993Q430.091 225.993 429.353 226.589Q428.615 227.186 428.615 228.379Q428.615 229.446 429.243 229.948Q429.871 230.451 431.221 230.671L433.545 231.047Q436.339 231.487 437.611 232.680Q438.882 233.873 438.882 236.134Q438.882 238.520 437.359 239.885Q435.837 241.251 432.760 241.251"/>
  </g>
</svg>
