<svg xmlns="http://www.w3.org/2000/svg" width="64" height="80" viewBox="0 0 64 80" role="img" aria-label="überepo mark">
  <style>
    .stroke-ink { stroke:#16161D; } .ink { fill:#16161D; }
    .accent { fill:#FF2E4D; }
    @media (prefers-color-scheme: dark) {
      .stroke-ink { stroke:#F5F5F7; } .ink { fill:#F5F5F7; }
    }
  </style>
  <!-- fork-as-ü glyph (matches the first letter of the wordmark) -->
  <g class="ink" stroke="none">
    <path d="M 20.405 17.181 A 1.166 1.166 0 0 1 21.571 16.015 L 26.289 16.015 A 1.166 1.166 0 0 1 27.455 17.181 L 27.455 60.575 L 36.545 60.575 L 36.545 17.181 A 1.166 1.166 0 0 1 37.711 16.015 L 42.429 16.015 A 1.166 1.166 0 0 1 43.595 17.181 L 43.595 63.04 A 4.585 4.585 0 0 1 39.01 67.625 L 24.99 67.625 A 4.585 4.585 0 0 1 20.405 63.04 L 20.405 17.181 Z"/>
    <path d="M 28.475 60.575 L 35.525 60.575 L 35.525 73.839 A 1.166 1.166 0 0 1 34.359 75.005 L 29.641 75.005 A 1.166 1.166 0 0 1 28.475 73.839 L 28.475 60.575 Z"/>
  </g>
  <!-- umlaut marks: rounded squares (accent red, constant both themes) -->
  <g class="accent">
    <path d="M 22.07 5.62 L 25.79 5.62 C 26.6 5.62 27.25 6.27 27.25 7.08 L 27.25 10.8 C 27.25 11.61 26.6 12.26 25.79 12.26 L 22.07 12.26 C 21.26 12.26 20.61 11.61 20.61 10.8 L 20.61 7.08 C 20.61 6.27 21.26 5.62 22.07 5.62 Z"/>
    <path d="M 38.21 5.62 L 41.93 5.62 C 42.74 5.62 43.39 6.27 43.39 7.08 L 43.39 10.8 C 43.39 11.61 42.74 12.26 41.93 12.26 L 38.21 12.26 C 37.4 12.26 36.75 11.61 36.75 10.8 L 36.75 7.08 C 36.75 6.27 37.4 5.62 38.21 5.62 Z"/>
  </g>
</svg>
